<svg xmlns="http://www.w3.org/2000/svg" viewBox="0 0 260.32 242.74"><defs><style>.cls-1,.cls-3,.cls-4{font-size:83.25px;font-family:Poppins-Bold, Poppins Bold;font-weight:700;}.cls-1,.cls-5{fill:#22f5ec;}.cls-2{letter-spacing:0em;}.cls-10,.cls-3{fill:#e60733;}.cls-11,.cls-23,.cls-4{fill:#1d262d;}.cls-10,.cls-11,.cls-5{font-size:31.66px;font-family:Poppins-Light, Poppins Light;}.cls-6{letter-spacing:-0.08em;}.cls-7{letter-spacing:-0.01em;}.cls-8{letter-spacing:-0.02em;}.cls-9{letter-spacing:0em;}.cls-12{opacity:0.05;}.cls-13{fill:#59ffd1;}.cls-14{opacity:0.16;}.cls-15{opacity:0.26;}.cls-16{opacity:0.37;}.cls-17{opacity:0.47;}.cls-18{opacity:0.58;}.cls-19{opacity:0.68;}.cls-20{opacity:0.79;}.cls-21{opacity:0.89;}.cls-22{fill:#cb193b;}</style></defs><title>404</title><g id="Layer_2" data-name="Layer 2"><g id="OBJECTS"><g id="_Group_" data-name="&lt;Group&gt;"><g id="_Group_2" data-name="&lt;Group&gt;"><text class="cls-1" transform="translate(8.48 69.68)">ER<tspan class="cls-2" x="85.74" y="0">R</tspan><tspan x="130.78" y="0">OR</tspan></text><text class="cls-3" transform="translate(16.48 69.68)">ER<tspan class="cls-2" x="85.74" y="0">R</tspan><tspan x="130.78" y="0">OR</tspan></text><text class="cls-4" transform="translate(12.48 69.68)">ER<tspan class="cls-2" x="85.74" y="0">R</tspan><tspan x="130.78" y="0">OR</tspan></text></g><g id="_Group_3" data-name="&lt;Group&gt;"><text class="cls-5" transform="translate(11.48 234.83)"><tspan class="cls-6">P</tspan><tspan class="cls-7" x="14.18" y="0">A</tspan><tspan x="33.08" y="0">GE N</tspan><tspan class="cls-8" x="96.66" y="0">O</tspan><tspan class="cls-9" x="117.68" y="0">T FOUND</tspan></text><text class="cls-10" transform="translate(13.48 234.83)"><tspan class="cls-6">P</tspan><tspan class="cls-7" x="14.18" y="0">A</tspan><tspan x="33.08" y="0">GE N</tspan><tspan class="cls-8" x="96.66" y="0">O</tspan><tspan class="cls-9" x="117.68" y="0">T FOUND</tspan></text><text class="cls-11" transform="translate(12.48 234.83)"><tspan class="cls-6">P</tspan><tspan class="cls-7" x="14.18" y="0">A</tspan><tspan x="33.08" y="0">GE N</tspan><tspan class="cls-8" x="96.66" y="0">O</tspan><tspan class="cls-9" x="117.68" y="0">T FOUND</tspan></text></g><g id="_Group_4" data-name="&lt;Group&gt;"><g id="_Group_5" data-name="&lt;Group&gt;"><g id="_Group_6" data-name="&lt;Group&gt;" class="cls-12"><path id="_Compound_Path_" data-name="&lt;Compound Path&gt;" class="cls-13" d="M86.29,168.76V153.39H77.85v-9.65H72.6v-6.16h5.25v-8H73.11v-6.16h4.74v-4.73H60v-1.1H77.85v-1.21H59.39v7.33H59v2.79H55.14v-2.79H50.59v-3.37H49.27v-6.16h1.32v-4.11h8.8v4.11H77.85v-9.8h-30l-8,11.45h8.58v1.1H39l-.85,1.21h8.44v2.2h-10l-8.41,12H43.91v5H24.75L12.24,155.12V162H43.37v1.65H12.24v4h55.5v1.1H12.24v3.74h9.44v3.74H12.24v2.31h36.7v3.2H69.66v6.38H48.94v3.32H77.85v-12.9h8.44v-5.5h-6v-4.29Zm-65.57-9.54H16.91v-3.81h3.81ZM30,156.48H23.88v-6.17H30ZM60.64,155H50v-1.61h-7.8L50,141.47V137H60.64Zm9-18H65.84v-3.81h3.81Z"/><path id="_Compound_Path_2" data-name="&lt;Compound Path&gt;" class="cls-13" d="M164.94,155.36a83.44,83.44,0,0,0,.51-9.32c0-8.77-1.2-16.33-3.52-22.62H134.81v-4.29h25.28c-5.87-11.71-16.44-17.92-31.14-17.92-8.66,0-15.88,2.17-21.55,6.33h35v2.2h-37.7a30.88,30.88,0,0,0-4.38,5.1h8.92v5.5h-12c-3.15,6.85-4.79,15.45-4.79,25.7,0,1.86.07,3.65.17,5.41h9.62v12.91H94.61c.4,1.52.86,3,1.37,4.4h25.28v4.29H97.82a35.16,35.16,0,0,0,2,3.41h38.56v2.2h-37C107.52,186.73,116.82,191,129,191c20.37,0,32.81-12,35.79-34H146.1v-1.65ZM144.57,111.5h3.78v3.78h-3.78Zm-1.18,47.14v8.8H129.53v-3.76c-.2,0-.38,0-.58,0-7,0-8.3-6.21-8.3-17.67,0-10.44,1.13-16.47,6.68-17.41V125.4h16.72v11.67h-7.42a55.7,55.7,0,0,1,.48,7.26h10v3.3h-10c-.05,4.65-.39,8.33-1.31,11Z"/><rect id="_Path_" data-name="&lt;Path&gt;" class="cls-13" x="225.49" y="109.74" width="12.54" height="1.21"/><path id="_Compound_Path_3" data-name="&lt;Compound Path&gt;" class="cls-13" d="M238,153.39V137.1h-3.3v-6.16H238v-8h-2.79v-6.16H238v-4.73H225.49V128.7H214.26v-9.46h-.44V113.7H211.4v-6.16h2.42v-3.16H208l-3.37,4.81h5.87v1.1h-6.64L203,111.5h5.73v2.2h-7.28l-4.34,6.2H212.5v5.94H193l-5.56,7.92h13.23v20H173.35l-.93,1.33v.24H205.5V157H172.42v4h57.45v1.1H172.42v4.66h22.7v8.14h-22.7v3.63h36.7v5.84h13.07v2.42H209.12v4.64H238v-12.9h8.44V153.39Zm-16.06,3H208.76v-3h-6.43l6.43-9.82v-6.06H222Zm9.81-26.08H228v-3.81h3.81Z"/><rect id="_Path_2" data-name="&lt;Path&gt;" class="cls-13" x="225.49" y="104.38" width="12.54" height="3.15"/><rect id="_Path_3" data-name="&lt;Path&gt;" class="cls-13" y="150.31" width="8.34" height="6.16"/><rect id="_Path_4" data-name="&lt;Path&gt;" class="cls-13" x="79.53" y="120.34" width="6.16" height="6.16"/><rect id="_Path_5" data-name="&lt;Path&gt;" class="cls-13" x="87.34" y="123.86" width="3.81" height="3.81"/><rect id="_Path_6" data-name="&lt;Path&gt;" class="cls-13" x="170.47" y="135.31" width="2.41" height="6.16"/><rect id="_Path_7" data-name="&lt;Path&gt;" class="cls-13" x="241.66" y="113.69" width="6.16" height="6.16"/><rect id="_Path_8" data-name="&lt;Path&gt;" class="cls-13" x="249.47" y="117.22" width="3.81" height="3.81"/><rect id="_Path_9" data-name="&lt;Path&gt;" class="cls-13" x="178.1" y="129.58" width="3.81" height="3.81"/><rect id="_Path_10" data-name="&lt;Path&gt;" class="cls-13" x="159.97" y="111.5" width="3.78" height="3.78"/></g><g id="_Group_7" data-name="&lt;Group&gt;" class="cls-14"><path id="_Compound_Path_4" data-name="&lt;Compound Path&gt;" class="cls-13" d="M86.49,168.76V153.39H78.05v-9.65H72.8v-6.16h5.25v-8H73.31v-6.16h4.74v-4.73H60.17v-1.1H78.05v-1.21H59.39v7.33h-.25v2.79H55.33v-2.79H50.59v-3.37H49.46v-6.16h1.13v-4.11h8.8v4.11H78.05v-9.8H48l-8,11.45h8.57v1.1H39.22l-.85,1.21H46.8v2.2h-10l-8.41,12H43.91v5h-19l-12.5,17.83V162H43.57v1.65H12.44v4h55.5v1.1H12.44v3.74h9.24v3.74H12.44v2.31h36.7v3.2H69.66v6.38H49.14v3.32H78.05v-12.9h8.44v-5.5h-6v-4.29Zm-65.57-9.54H17.11v-3.81h3.81Zm9.32-2.74H24.08v-6.17h6.16ZM60.64,155H50v-1.61H42.35L50,141.77V137H60.64Zm9.2-18H66v-3.81h3.8Z"/><path id="_Compound_Path_5" data-name="&lt;Compound Path&gt;" class="cls-13" d="M165.14,155.36a83.51,83.51,0,0,0,.5-9.32c0-8.77-1.2-16.33-3.52-22.62H135v-4.29h25.27c-5.86-11.71-16.44-17.92-31.14-17.92-8.65,0-15.87,2.17-21.55,6.33h35v2.2h-37.7a30.41,30.41,0,0,0-4.38,5.1h8.72v5.5H97.43c-3.15,6.85-4.78,15.45-4.78,25.7,0,1.86.06,3.65.17,5.41h9.42v12.91H94.81c.4,1.52.85,3,1.37,4.4h25.28v4.29H98a35.16,35.16,0,0,0,2,3.41h38.56v2.2h-37C107.71,186.73,117,191,129.14,191c20.37,0,32.81-12,35.79-34H146.3v-1.65ZM144.76,111.5h3.78v3.78h-3.78Zm-1.37,47.14v8.8H129.53v-3.75l-.39,0c-7,0-8.29-6.21-8.29-17.67,0-10.31,1.1-16.33,6.48-17.38V125.4h16.72v11.67h-7.22a55.85,55.85,0,0,1,.47,7.26h9.83v3.3h-9.82c-.06,4.65-.39,8.33-1.31,11Z"/><rect id="_Path_11" data-name="&lt;Path&gt;" class="cls-13" x="225.49" y="104.38" width="12.74" height="3.15"/><rect id="_Path_12" data-name="&lt;Path&gt;" class="cls-13" x="225.49" y="109.74" width="12.74" height="1.21"/><path id="_Compound_Path_6" data-name="&lt;Compound Path&gt;" class="cls-13" d="M238.22,153.39V137.1h-3.29v-6.16h3.29v-8h-2.78v-6.16h2.78v-4.73H225.49V128.7H214.26v-9.46h-.44V113.7h-2.23v-6.16h2.23v-3.16h-5.63l-3.37,4.81h5.87v1.1h-6.64l-.85,1.21h5.73v2.2h-7.27l-4.35,6.2H212.5v5.94H193.15l-5.56,7.92h13v20H173.55l-.93,1.33v.24H205.7V157H172.62v4h57.45v1.1H172.62v4.66h22.5v8.14h-22.5v3.63h36.7v5.84h12.87v2.42H209.32v4.64h28.9v-12.9h8.45V153.39Zm-16.25,3H208.76v-3h-6.23l6.23-9.52v-6.36H222Zm10-26.08h-3.8v-3.81H232Z"/><rect id="_Path_13" data-name="&lt;Path&gt;" class="cls-13" x="0.2" y="150.31" width="8.34" height="6.16"/><rect id="_Path_14" data-name="&lt;Path&gt;" class="cls-13" x="79.73" y="120.34" width="6.16" height="6.16"/><rect id="_Path_15" data-name="&lt;Path&gt;" class="cls-13" x="87.53" y="123.86" width="3.81" height="3.81"/><rect id="_Path_16" data-name="&lt;Path&gt;" class="cls-13" x="170.67" y="135.31" width="2.22" height="6.16"/><rect id="_Path_17" data-name="&lt;Path&gt;" class="cls-13" x="241.86" y="113.69" width="6.16" height="6.16"/><rect id="_Path_18" data-name="&lt;Path&gt;" class="cls-13" x="249.66" y="117.22" width="3.81" height="3.81"/><rect id="_Path_19" data-name="&lt;Path&gt;" class="cls-13" x="178.29" y="129.58" width="3.81" height="3.81"/><rect id="_Path_20" data-name="&lt;Path&gt;" class="cls-13" x="160.17" y="111.5" width="3.78" height="3.78"/></g><g id="_Group_8" data-name="&lt;Group&gt;" class="cls-15"><path id="_Compound_Path_7" data-name="&lt;Compound Path&gt;" class="cls-13" d="M86.69,168.76V153.39H78.24v-9.65H73v-6.16h5.25v-8H73.5v-6.16h4.74v-4.73H60.37v-1.1H78.24v-1.21H59.39v7.33h0v2.79H55.53v-2.79H50.59v-3.37h-.93v-6.16h.93v-4.11h8.8v4.11H78.24v-9.8h-30l-8,11.45h8.57v1.1H39.41l-.85,1.21H47v2.2H37l-8.41,12h15.3v5H25.14l-12.5,17.83V162H43.77v1.65H12.64v4h55.5v1.1H12.64v3.74h9v3.74h-9v2.31h36.7v3.2H69.66v6.38H49.34v3.32h28.9v-12.9h8.45v-5.5h-6v-4.29Zm-65.58-9.54h-3.8v-3.81h3.8Zm9.32-2.74H24.27v-6.17h6.16ZM60.64,155H50v-1.61H42.55L50,142.06V137H60.64ZM70,137H66.23v-3.81H70Z"/><path id="_Compound_Path_8" data-name="&lt;Compound Path&gt;" class="cls-13" d="M165.33,155.36a83.44,83.44,0,0,0,.51-9.32c0-8.77-1.2-16.33-3.52-22.62H135.2v-4.29h25.28c-5.87-11.71-16.44-17.92-31.14-17.92-8.66,0-15.88,2.17-21.55,6.33h35v2.2h-37.7a31.36,31.36,0,0,0-4.38,5.1h8.53v5.5H97.63c-3.15,6.85-4.79,15.45-4.79,25.7,0,1.86.07,3.65.17,5.41h9.23v12.91H95c.41,1.52.86,3,1.37,4.4h25.29v4.29H98.22a33.14,33.14,0,0,0,1.94,3.41h38.56v2.2h-37c6.19,8.07,15.5,12.32,27.62,12.32,20.37,0,32.81-12,35.79-34H146.49v-1.65ZM145,111.5h3.78v3.78H145Zm-1.57,47.14v8.8H129.53V163.7h-.19c-7,0-8.3-6.21-8.3-17.67,0-10.19,1.07-16.18,6.29-17.34v-3.3h16.72v11.67h-7a55.7,55.7,0,0,1,.48,7.26h9.63v3.3H137.5c-.05,4.65-.38,8.33-1.31,11Z"/><rect id="_Path_21" data-name="&lt;Path&gt;" class="cls-13" x="225.49" y="109.74" width="12.93" height="1.21"/><rect id="_Path_22" data-name="&lt;Path&gt;" class="cls-13" x="225.49" y="104.38" width="12.93" height="3.15"/><path id="_Compound_Path_9" data-name="&lt;Compound Path&gt;" class="cls-13" d="M238.42,153.39V137.1h-3.3v-6.16h3.3v-8h-2.79v-6.16h2.79v-4.73H225.49V128.7H214.26v-9.46h-.44V113.7h-2v-6.16h2v-3.16h-5.43L205,109.19h5.87v1.1h-6.64l-.85,1.21h5.73v2.2h-7.27l-4.35,6.2h15v5.94H193.34l-5.56,7.92h12.84v20H173.74l-.93,1.33v.24H205.9V157H172.81v4h57.46v1.1H172.81v4.66h22.31v8.14H172.81v3.63h36.7v5.84h12.68v2.42H209.51v4.64h28.91v-12.9h8.44V153.39Zm-16.45,3H208.76v-3h-6l6-9.22v-6.66H222Zm10.2-26.08h-3.81v-3.81h3.81Z"/><rect id="_Path_23" data-name="&lt;Path&gt;" class="cls-13" x="0.39" y="150.31" width="8.34" height="6.16"/><rect id="_Path_24" data-name="&lt;Path&gt;" class="cls-13" x="79.92" y="120.34" width="6.16" height="6.16"/><rect id="_Path_25" data-name="&lt;Path&gt;" class="cls-13" x="87.73" y="123.86" width="3.81" height="3.81"/><rect id="_Path_26" data-name="&lt;Path&gt;" class="cls-13" x="170.86" y="135.31" width="2.02" height="6.16"/><rect id="_Path_27" data-name="&lt;Path&gt;" class="cls-13" x="242.05" y="113.69" width="6.16" height="6.16"/><rect id="_Path_28" data-name="&lt;Path&gt;" class="cls-13" x="249.86" y="117.22" width="3.81" height="3.81"/><rect id="_Path_29" data-name="&lt;Path&gt;" class="cls-13" x="178.49" y="129.58" width="3.81" height="3.81"/><rect id="_Path_30" data-name="&lt;Path&gt;" class="cls-13" x="160.36" y="111.5" width="3.78" height="3.78"/></g><g id="_Group_9" data-name="&lt;Group&gt;" class="cls-16"><path id="_Compound_Path_10" data-name="&lt;Compound Path&gt;" class="cls-13" d="M86.88,168.76V153.39H78.44v-9.65H73.19v-6.16h5.25v-8H73.7v-6.16h4.74v-4.73H60.56v-1.1H78.44v-1.21h-19v6.31h.14v3.81H55.72v-2.79H50.59v-3.37h-.73v-6.16h.73v-4.11h8.8v4.11h19v-9.8h-30l-8,11.45H49v1.1H39.61l-.85,1.21h8.43v2.2h-10l-8.41,12h15.1v5H25.33l-12.5,17.83V162H44v1.65H12.83v4h55.5v1.1H12.83v3.74h8.85v3.74H12.83v2.31h36.7v3.2H69.66v6.38H49.53v3.32H78.44v-12.9h8.44v-5.5h-6v-4.29Zm-65.57-9.54H17.5v-3.81h3.81Zm9.32-2.74H24.47v-6.17h6.16Zm30-1.48H50v-1.61H42.74l7.22-11V137H60.64Zm9.6-18H66.43v-3.81h3.81Z"/><path id="_Compound_Path_11" data-name="&lt;Compound Path&gt;" class="cls-13" d="M165.53,155.36A83.51,83.51,0,0,0,166,146c0-8.77-1.2-16.33-3.51-22.62H135.4v-4.29h25.28c-5.87-11.71-16.45-17.92-31.14-17.92-8.66,0-15.88,2.17-21.56,6.33H143v2.2h-37.7a30.88,30.88,0,0,0-4.38,5.1h8.33v5.5H97.82C94.67,127.19,93,135.79,93,146c0,1.86.06,3.65.17,5.41h9v12.91h-7c.4,1.52.85,3,1.37,4.4h25.28v4.29H98.41a35.16,35.16,0,0,0,2,3.41h38.56v2.2h-37c6.18,8.07,15.49,12.32,27.62,12.32,20.36,0,32.81-12,35.79-34H146.69v-1.65ZM145.15,111.5h3.78v3.78h-3.78Zm-1.76,47.14v8.8H129.53v-3.73c-7,0-8.29-6.21-8.29-17.67,0-10.06,1-16,6.09-17.3V125.4h16.72v11.67h-6.83a55.85,55.85,0,0,1,.47,7.26h9.44v3.3H137.7c-.06,4.65-.39,8.33-1.31,11Z"/><rect id="_Path_31" data-name="&lt;Path&gt;" class="cls-13" x="225.49" y="109.74" width="13.13" height="1.21"/><rect id="_Path_32" data-name="&lt;Path&gt;" class="cls-13" x="225.49" y="104.38" width="13.13" height="3.15"/><path id="_Compound_Path_12" data-name="&lt;Compound Path&gt;" class="cls-13" d="M238.62,153.39V137.1h-3.3v-6.16h3.3v-8h-2.79v-6.16h2.79v-4.73H225.49V128.7H214.26v-9.46h-.44V113.7H212v-6.16h1.83v-3.16h-5.24l-3.36,4.81h5.86v1.1h-6.64l-.85,1.21h5.73v2.2h-7.27l-4.35,6.2h14.8v5.94h-19L188,133.76h12.64v20H173.94l-.93,1.33v.24h33.08V157H173v4h57.45v1.1H173v4.66h22.11v8.14H173v3.63h36.7v5.84h12.48v2.42H209.71v4.64h28.91v-12.9h8.44V153.39Zm-16.65,3H208.76v-3h-5.84l5.84-8.92v-7H222Zm10.4-26.08h-3.81v-3.81h3.81Z"/><rect id="_Path_33" data-name="&lt;Path&gt;" class="cls-13" x="0.59" y="150.31" width="8.34" height="6.16"/><rect id="_Path_34" data-name="&lt;Path&gt;" class="cls-13" x="80.12" y="120.34" width="6.16" height="6.16"/><rect id="_Path_35" data-name="&lt;Path&gt;" class="cls-13" x="87.92" y="123.86" width="3.81" height="3.81"/><rect id="_Path_36" data-name="&lt;Path&gt;" class="cls-13" x="171.06" y="135.31" width="1.83" height="6.16"/><rect id="_Path_37" data-name="&lt;Path&gt;" class="cls-13" x="242.25" y="113.69" width="6.16" height="6.16"/><rect id="_Path_38" data-name="&lt;Path&gt;" class="cls-13" x="250.05" y="117.22" width="3.81" height="3.81"/><rect id="_Path_39" data-name="&lt;Path&gt;" class="cls-13" x="178.69" y="129.58" width="3.81" height="3.81"/><rect id="_Path_40" data-name="&lt;Path&gt;" class="cls-13" x="160.56" y="111.5" width="3.78" height="3.78"/></g><g id="_Group_10" data-name="&lt;Group&gt;" class="cls-17"><path id="_Compound_Path_13" data-name="&lt;Compound Path&gt;" class="cls-13" d="M87.08,168.76V153.39H78.63v-9.65H73.38v-6.16h5.25v-8H73.9v-6.16h4.73v-4.73H60.76v-1.1H78.63v-1.21H59.39v6.31h.34v3.81H55.92v-2.79H50.59v-3.37h-.54v-6.16h.54v-4.11h8.8v4.11H78.63v-9.8h-30l-8,11.45h8.57v1.1H39.8L39,118.14h8.43v2.2h-10l-8.41,12H43.91v5H25.53L13,155.12V162H44.16v1.65H13v4h55.5v1.1H13v3.74h8.65v3.74H13v2.31h36.7v3.2H69.66v6.38H49.73v3.32h28.9v-12.9h8.45v-5.5h-6v-4.29Zm-65.57-9.54H17.7v-3.81h3.81Zm9.32-2.74H24.66v-6.17h6.17ZM60.64,155H50v-1.61h-7l7-10.73V137H60.64Zm9.79-18H66.62v-3.81h3.81Z"/><path id="_Compound_Path_14" data-name="&lt;Compound Path&gt;" class="cls-13" d="M165.73,155.36a86,86,0,0,0,.5-9.32c0-8.77-1.2-16.33-3.52-22.62H135.59v-4.29h25.28c-5.87-11.71-16.44-17.92-31.14-17.92-8.65,0-15.87,2.17-21.55,6.33h35v2.2h-37.7a30.83,30.83,0,0,0-4.37,5.1h8.13v5.5H98c-3.15,6.85-4.79,15.45-4.79,25.7,0,1.86.07,3.65.18,5.41h8.83v12.91H95.39c.41,1.52.86,3,1.37,4.4h25.29v4.29H98.61a37.32,37.32,0,0,0,1.94,3.41h38.56v2.2h-37c6.19,8.07,15.5,12.32,27.62,12.32,20.37,0,32.81-12,35.79-34H146.89v-1.65ZM145.35,111.5h3.78v3.78h-3.78Zm-2,47.14v8.8H129.53V163.7c-6.79-.12-8.09-6.32-8.09-17.66,0-9.93,1-15.89,5.89-17.26V125.4h16.72v11.67h-6.64a55.7,55.7,0,0,1,.48,7.26h9.24v3.3h-9.24c0,4.65-.38,8.33-1.3,11Z"/><path id="_Compound_Path_15" data-name="&lt;Compound Path&gt;" class="cls-13" d="M238.81,153.39V137.1h-3.3v-6.16h3.3v-8H236v-6.16h2.78v-4.73H225.49V128.7H214.26v-9.46h-.44V113.7h-1.64v-6.16h1.64v-3.16h-5l-3.37,4.81h5.87v1.1h-6.64l-.85,1.21h5.73v2.2h-7.27l-4.35,6.2h14.6v5.94H193.73l-5.55,7.92h12.44v20H174.13l-.93,1.33v.24h33.09V157H173.2v4h57.46v1.1H173.2v4.66h21.92v8.14H173.2v3.63h36.7v5.84h12.29v2.42H209.9v4.64h28.91v-12.9h8.44V153.39Zm-16.84,3H208.76v-3h-5.64l5.64-8.62v-7.26H222Zm10.59-26.08h-3.81v-3.81h3.81Z"/><rect id="_Path_41" data-name="&lt;Path&gt;" class="cls-13" x="225.49" y="109.74" width="13.32" height="1.21"/><rect id="_Path_42" data-name="&lt;Path&gt;" class="cls-13" x="225.49" y="104.38" width="13.32" height="3.15"/><rect id="_Path_43" data-name="&lt;Path&gt;" class="cls-13" x="0.78" y="150.31" width="8.34" height="6.16"/><rect id="_Path_44" data-name="&lt;Path&gt;" class="cls-13" x="80.32" y="120.34" width="6.16" height="6.16"/><rect id="_Path_45" data-name="&lt;Path&gt;" class="cls-13" x="88.12" y="123.86" width="3.81" height="3.81"/><rect id="_Path_46" data-name="&lt;Path&gt;" class="cls-13" x="171.25" y="135.31" width="1.63" height="6.16"/><rect id="_Path_47" data-name="&lt;Path&gt;" class="cls-13" x="242.45" y="113.69" width="6.16" height="6.16"/><rect id="_Path_48" data-name="&lt;Path&gt;" class="cls-13" x="250.25" y="117.22" width="3.81" height="3.81"/><rect id="_Path_49" data-name="&lt;Path&gt;" class="cls-13" x="178.88" y="129.58" width="3.81" height="3.81"/><rect id="_Path_50" data-name="&lt;Path&gt;" class="cls-13" x="160.75" y="111.5" width="3.78" height="3.78"/></g><g id="_Group_11" data-name="&lt;Group&gt;" class="cls-18"><path id="_Compound_Path_16" data-name="&lt;Compound Path&gt;" class="cls-13" d="M87.27,168.76V153.39H78.83v-9.65H73.58v-6.16h5.25v-8H74.09v-6.16h4.74v-4.73H61v-1.1H78.83v-1.21H59.39v6.31h.53v3.81h-3.8v-2.79H50.59v-3.37h-.34v-6.16h.34v-4.11h8.8v4.11H78.83v-9.8h-30l-8,11.45h8.57v1.1H40l-.85,1.21h8.43v2.2h-10l-8.41,12H43.91v5H25.73L13.22,155.12V162H44.35v1.65H13.22v4h55.5v1.1H13.22v3.74h8.46v3.74H13.22v2.31h36.7v3.2H69.66v6.38H49.92v3.32H78.83v-12.9h8.44v-5.5h-6v-4.29ZM21.7,159.22H17.89v-3.81H21.7ZM31,156.48H24.86v-6.17H31ZM60.64,155H50v-1.61H43.13L50,143v-6H60.64Zm10-18H66.82v-3.81h3.81Z"/><path id="_Compound_Path_17" data-name="&lt;Compound Path&gt;" class="cls-13" d="M165.92,155.36a83.51,83.51,0,0,0,.5-9.32c0-8.77-1.2-16.33-3.51-22.62H135.79v-4.29h25.28c-5.87-11.71-16.45-17.92-31.14-17.92-8.66,0-15.88,2.17-21.55,6.33h35v2.2h-37.7a30.88,30.88,0,0,0-4.38,5.1h7.94v5.5H98.22c-3.16,6.85-4.79,15.45-4.79,25.7,0,1.86.06,3.65.17,5.41h8.64v12.91H95.59c.4,1.52.85,3,1.37,4.4h25.28v4.29H98.8a35.16,35.16,0,0,0,2,3.41h38.56v2.2h-37c6.18,8.07,15.49,12.32,27.62,12.32,20.37,0,32.81-12,35.79-34H147.08v-1.65ZM145.54,111.5h3.78v3.78h-3.78Zm-2.15,47.14v8.8H129.53v-3.75c-6.62-.24-7.9-6.42-7.9-17.65,0-9.79,1-15.71,5.7-17.19V125.4h16.72v11.67h-6.44a55.7,55.7,0,0,1,.48,7.26h9v3.3h-9c-.06,4.65-.39,8.33-1.31,11Z"/><rect id="_Path_51" data-name="&lt;Path&gt;" class="cls-13" x="225.49" y="109.74" width="13.52" height="1.21"/><path id="_Compound_Path_18" data-name="&lt;Compound Path&gt;" class="cls-13" d="M239,153.39V137.1h-3.3v-6.16H239v-8h-2.79v-6.16H239v-4.73H225.49V128.7H214.26v-9.46h-.44V113.7h-1.44v-6.16h1.44v-3.16H209l-3.37,4.81h5.86v1.1h-6.64L204,111.5h5.72v2.2h-7.27l-4.35,6.2H212.5v5.94H193.93l-5.56,7.92h12.25v20H174.33l-.93,1.33v.24h33.08V157H173.4v4h57.45v1.1H173.4v4.66h21.72v8.14H173.4v3.63h36.7v5.84h12.09v2.42H210.1v4.64H239v-12.9h8.44V153.39Zm-17,3H208.76v-3h-5.45l5.45-8.32v-7.56H222Zm10.79-26.08H229v-3.81h3.81Z"/><rect id="_Path_52" data-name="&lt;Path&gt;" class="cls-13" x="225.49" y="104.38" width="13.52" height="3.15"/><rect id="_Path_53" data-name="&lt;Path&gt;" class="cls-13" x="0.98" y="150.31" width="8.34" height="6.16"/><rect id="_Path_54" data-name="&lt;Path&gt;" class="cls-13" x="80.51" y="120.34" width="6.16" height="6.16"/><rect id="_Path_55" data-name="&lt;Path&gt;" class="cls-13" x="88.31" y="123.86" width="3.81" height="3.81"/><rect id="_Path_56" data-name="&lt;Path&gt;" class="cls-13" x="171.45" y="135.31" width="1.44" height="6.16"/><rect id="_Path_57" data-name="&lt;Path&gt;" class="cls-13" x="242.64" y="113.69" width="6.16" height="6.16"/><rect id="_Path_58" data-name="&lt;Path&gt;" class="cls-13" x="250.44" y="117.22" width="3.81" height="3.81"/><rect id="_Path_59" data-name="&lt;Path&gt;" class="cls-13" x="179.08" y="129.58" width="3.81" height="3.81"/><rect id="_Path_60" data-name="&lt;Path&gt;" class="cls-13" x="160.95" y="111.5" width="3.78" height="3.78"/></g><g id="_Group_12" data-name="&lt;Group&gt;" class="cls-19"><path id="_Compound_Path_19" data-name="&lt;Compound Path&gt;" class="cls-13" d="M87.47,168.76V153.39H79v-9.65H73.77v-6.16H79v-8H74.29v-6.16H79v-4.73H61.15v-1.1H79v-1.21H59.39v6.31h.73v3.81H56.31v-2.79H50.59v-3.37h-.15v-6.16h.15v-4.11h8.8v4.11H79v-9.8H49l-8,11.45h8.57v1.1H40.2l-.85,1.21h8.43v2.2h-10l-8.41,12H43.91v5h-18l-12.5,17.83V162H44.55v1.65H13.42v4h55.5v1.1H13.42v3.74h8.26v3.74H13.42v2.31h36.7v3.2H69.66v6.38H50.12v3.32H79v-12.9h8.44v-5.5h-6v-4.29ZM21.9,159.22H18.09v-3.81H21.9Zm9.32-2.74H25.05v-6.17h6.17ZM60.64,155H50v-1.61H43.33L50,143.26V137H60.64Zm10.18-18H67v-3.81h3.81Z"/><path id="_Compound_Path_20" data-name="&lt;Compound Path&gt;" class="cls-13" d="M166.12,155.36a86,86,0,0,0,.5-9.32c0-8.77-1.2-16.33-3.52-22.62H136v-4.29h25.28c-5.87-11.71-16.44-17.92-31.14-17.92-8.65,0-15.87,2.17-21.55,6.33h35v2.2h-37.7a30.83,30.83,0,0,0-4.37,5.1h7.74v5.5H98.41c-3.15,6.85-4.79,15.45-4.79,25.7,0,1.86.07,3.65.18,5.41h8.44v12.91H95.78c.41,1.52.86,3,1.38,4.4h25.28v4.29H99a37.32,37.32,0,0,0,1.94,3.41H139.5v2.2h-37C108.69,186.73,118,191,130.12,191c20.37,0,32.81-12,35.79-34H147.28v-1.65ZM145.74,111.5h3.78v3.78h-3.78Zm1.39,36.13h-8.84c-.06,4.65-.39,8.33-1.31,11h6.41v8.8H129.53v-3.76c-6.44-.36-7.7-6.52-7.7-17.64,0-9.65,1-15.54,5.5-17.12V125.4h16.72v11.67h-6.24a57.68,57.68,0,0,1,.47,7.26h8.85Z"/><rect id="_Path_61" data-name="&lt;Path&gt;" class="cls-13" x="225.49" y="109.74" width="13.71" height="1.21"/><path id="_Compound_Path_21" data-name="&lt;Compound Path&gt;" class="cls-13" d="M239.2,153.39V137.1h-3.3v-6.16h3.3v-8h-2.78v-6.16h2.78v-4.73H225.49V128.7H214.26v-9.46h-.44V113.7h-1.25v-6.16h1.25v-3.16h-4.65l-3.37,4.81h5.87v1.1H205l-.85,1.21h5.73v2.2h-7.27l-4.35,6.2H212.5v5.94H194.12l-5.55,7.92h12.05v20h-26.1l-.93,1.33v.24h33.09V157H173.59v4h57.46v1.1H173.59v4.66h21.53v8.14H173.59v3.63H210.3v5.84h11.89v2.42H210.3v4.64h28.9v-12.9h8.45V153.39Zm-17.23,3H208.76v-3h-5.25l5.25-8v-7.85H222Zm11-26.08h-3.81v-3.81H233Z"/><rect id="_Path_62" data-name="&lt;Path&gt;" class="cls-13" x="225.49" y="104.38" width="13.71" height="3.15"/><rect id="_Path_63" data-name="&lt;Path&gt;" class="cls-13" x="1.17" y="150.31" width="8.34" height="6.16"/><rect id="_Path_64" data-name="&lt;Path&gt;" class="cls-13" x="80.71" y="120.34" width="6.16" height="6.16"/><rect id="_Path_65" data-name="&lt;Path&gt;" class="cls-13" x="88.51" y="123.86" width="3.81" height="3.81"/><rect id="_Path_66" data-name="&lt;Path&gt;" class="cls-13" x="171.65" y="135.31" width="1.24" height="6.16"/><rect id="_Path_67" data-name="&lt;Path&gt;" class="cls-13" x="242.84" y="113.69" width="6.16" height="6.16"/><rect id="_Path_68" data-name="&lt;Path&gt;" class="cls-13" x="250.64" y="117.22" width="3.81" height="3.81"/><rect id="_Path_69" data-name="&lt;Path&gt;" class="cls-13" x="179.27" y="129.58" width="3.81" height="3.81"/><rect id="_Path_70" data-name="&lt;Path&gt;" class="cls-13" x="161.15" y="111.5" width="3.78" height="3.78"/></g><g id="_Group_13" data-name="&lt;Group&gt;" class="cls-20"><path id="_Compound_Path_22" data-name="&lt;Compound Path&gt;" class="cls-13" d="M87.66,168.76V153.39H79.22v-9.65H74v-6.16h5.25v-8H74.48v-6.16h4.74v-4.73H61.35v-1.1H79.22v-1.21H59.39v6.31h.93v3.81H56.51v-2.79H50.59V110.07h8.8v4.11H79.22v-9.8h-30l-8,11.45h8.58v1.1H40.39l-.85,1.21H48v2.2H38l-8.41,12H43.91v5H26.12L13.61,155.12V162H44.74v1.65H13.61v4h55.5v1.1H13.61v3.74h8.07v3.74H13.61v2.31h36.7v3.2H69.66v6.38H50.31v3.32H79.22v-12.9h8.44v-5.5h-6v-4.29Zm-65.57-9.54H18.28v-3.81h3.81Zm9.32-2.74H25.25v-6.17h6.16ZM60.64,155H50v-1.61H43.52L50,143.56V137H60.64ZM71,137H67.21v-3.81H71Z"/><path id="_Compound_Path_23" data-name="&lt;Compound Path&gt;" class="cls-13" d="M166.31,155.36a83.51,83.51,0,0,0,.5-9.32c0-8.77-1.19-16.33-3.51-22.62H136.18v-4.29h25.28c-5.87-11.71-16.44-17.92-31.14-17.92-8.66,0-15.88,2.17-21.55,6.33h35v2.2h-37.7a30.88,30.88,0,0,0-4.38,5.1h7.55v5.5H98.61c-3.16,6.85-4.79,15.45-4.79,25.7,0,1.86.07,3.65.17,5.41h8.25v12.91H96c.4,1.52.86,3,1.37,4.4h25.28v4.29H99.19a35.16,35.16,0,0,0,2,3.41H139.7v2.2h-37c6.19,8.07,15.49,12.32,27.62,12.32,20.37,0,32.81-12,35.79-34H147.47v-1.65ZM145.94,111.5h3.77v3.78h-3.77Zm1.19,36.13h-8.65c0,4.65-.39,8.33-1.31,11h6.22v8.8H129.53v-3.77c-6.27-.48-7.51-6.62-7.51-17.63,0-9.51.94-15.37,5.31-17V125.4h16.72v11.67H138a55.7,55.7,0,0,1,.48,7.26h8.65Z"/><rect id="_Path_71" data-name="&lt;Path&gt;" class="cls-13" x="225.49" y="109.74" width="13.91" height="1.21"/><path id="_Compound_Path_24" data-name="&lt;Compound Path&gt;" class="cls-13" d="M239.4,153.39V137.1h-3.3v-6.16h3.3v-8h-2.79v-6.16h2.79v-4.73H225.49V128.7H214.26v-9.46h-.44V113.7h-1v-6.16h1v-3.16h-4.45L206,109.19h5.87v1.1h-6.64l-.85,1.21h5.73v2.2h-7.28l-4.34,6.2h14v5.94H194.32l-5.56,7.92h11.86v20h-25.9l-.93,1.33v.24h33.08V157H173.79v4h57.45v1.1H173.79v4.66h21.33v8.14H173.79v3.63h36.7v5.84h11.7v2.42h-11.7v4.64H239.4v-12.9h8.44V153.39Zm-17.43,3H208.76v-3H203.7l5.06-7.73v-8.15H222Zm11.18-26.08h-3.81v-3.81h3.81Z"/><rect id="_Path_72" data-name="&lt;Path&gt;" class="cls-13" x="225.49" y="104.38" width="13.91" height="3.15"/><rect id="_Path_73" data-name="&lt;Path&gt;" class="cls-13" x="1.37" y="150.31" width="8.34" height="6.16"/><rect id="_Path_74" data-name="&lt;Path&gt;" class="cls-13" x="80.9" y="120.34" width="6.16" height="6.16"/><rect id="_Path_75" data-name="&lt;Path&gt;" class="cls-13" x="88.71" y="123.86" width="3.81" height="3.81"/><rect id="_Path_76" data-name="&lt;Path&gt;" class="cls-13" x="171.84" y="135.31" width="1.04" height="6.16"/><rect id="_Path_77" data-name="&lt;Path&gt;" class="cls-13" x="243.03" y="113.69" width="6.16" height="6.16"/><rect id="_Path_78" data-name="&lt;Path&gt;" class="cls-13" x="250.84" y="117.22" width="3.81" height="3.81"/><rect id="_Path_79" data-name="&lt;Path&gt;" class="cls-13" x="179.47" y="129.58" width="3.81" height="3.81"/><rect id="_Path_80" data-name="&lt;Path&gt;" class="cls-13" x="161.34" y="111.5" width="3.78" height="3.78"/></g><g id="_Group_14" data-name="&lt;Group&gt;" class="cls-21"><path id="_Compound_Path_25" data-name="&lt;Compound Path&gt;" class="cls-13" d="M87.86,168.76V153.39H79.42v-9.65H74.16v-6.16h5.26v-8H74.68v-6.16h4.74v-4.73H61.54v-1.1H79.42v-1.21h-20v6.31h1.12v3.81H56.7v-2.79H50.59V110.07h8.8v4.11h20v-9.8h-30l-8,11.45h8.57v1.1H40.59l-.85,1.21h8.43v2.2h-10l-8.42,12H43.91v5H26.31l-12.5,17.83V162H44.94v1.65H13.81v4h55.5v1.1H13.81v3.74h7.87v3.74H13.81v2.31h36.7v3.2H69.66v6.38H50.51v3.32H79.42v-12.9h8.44v-5.5h-6v-4.29Zm-65.57-9.54H18.48v-3.81h3.81Zm9.32-2.74H25.45v-6.17h6.16Zm29-1.48H50v-1.61H43.72L50,143.86V137H60.64Zm10.57-18H67.4v-3.81h3.81Z"/><path id="_Compound_Path_26" data-name="&lt;Compound Path&gt;" class="cls-13" d="M166.51,155.36A83.51,83.51,0,0,0,167,146c0-8.77-1.2-16.33-3.52-22.62H136.37v-4.29h25.28c-5.86-11.71-16.44-17.92-31.14-17.92-8.65,0-15.87,2.17-21.55,6.33h35v2.2H106.31a30.41,30.41,0,0,0-4.38,5.1h7.35v5.5H98.8C95.65,127.19,94,135.79,94,146c0,1.86.06,3.65.17,5.41h8v12.91H96.17c.41,1.52.86,3,1.38,4.4h25.28v4.29H99.39a35.16,35.16,0,0,0,2,3.41H139.9v2.2h-37c6.18,8.07,15.49,12.32,27.61,12.32,20.37,0,32.81-12,35.79-34H147.67v-1.65ZM146.13,111.5h3.78v3.78h-3.78Zm1,36.13h-8.45c-.06,4.65-.39,8.33-1.31,11h6v8.8H129.53v-3.78c-6.11-.59-7.31-6.73-7.31-17.62,0-9.37.9-15.2,5.11-17V125.4h16.72v11.67H138.2a57.68,57.68,0,0,1,.47,7.26h8.46Z"/><rect id="_Path_81" data-name="&lt;Path&gt;" class="cls-13" x="225.49" y="109.74" width="14.1" height="1.21"/><rect id="_Path_82" data-name="&lt;Path&gt;" class="cls-13" x="225.49" y="104.38" width="14.1" height="3.15"/><path id="_Compound_Path_27" data-name="&lt;Compound Path&gt;" class="cls-13" d="M239.59,153.39V137.1h-3.3v-6.16h3.3v-8h-2.78v-6.16h2.78v-4.73h-14.1V128.7H214.26v-9.46h-.44V113.7H213v-6.16h.86v-3.16h-4.26l-3.37,4.81h5.87v1.1h-6.64l-.85,1.21h5.73v2.2H203l-4.35,6.2H212.5v5.94h-18L189,133.76h11.66v20H174.91l-.92,1.33v.24h33.08V157H174v4h57.45v1.1H174v4.66h21.13v8.14H174v3.63h36.7v5.84h11.5v2.42h-11.5v4.64h28.9v-12.9H248V153.39Zm-17.62,3H208.76v-3H203.9l4.86-7.43v-8.45H222Zm11.37-26.08h-3.81v-3.81h3.81Z"/><rect id="_Path_83" data-name="&lt;Path&gt;" class="cls-13" x="1.57" y="150.31" width="8.34" height="6.16"/><rect id="_Path_84" data-name="&lt;Path&gt;" class="cls-13" x="81.1" y="120.34" width="6.16" height="6.16"/><rect id="_Path_85" data-name="&lt;Path&gt;" class="cls-13" x="88.9" y="123.86" width="3.81" height="3.81"/><rect id="_Path_86" data-name="&lt;Path&gt;" class="cls-13" x="172.04" y="135.31" width="0.85" height="6.16"/><rect id="_Path_87" data-name="&lt;Path&gt;" class="cls-13" x="243.23" y="113.69" width="6.16" height="6.16"/><rect id="_Path_88" data-name="&lt;Path&gt;" class="cls-13" x="251.03" y="117.22" width="3.81" height="3.81"/><rect id="_Path_89" data-name="&lt;Path&gt;" class="cls-13" x="179.66" y="129.58" width="3.81" height="3.81"/><rect id="_Path_90" data-name="&lt;Path&gt;" class="cls-13" x="161.54" y="111.5" width="3.78" height="3.78"/></g><g id="_Group_15" data-name="&lt;Group&gt;"><path id="_Compound_Path_28" data-name="&lt;Compound Path&gt;" class="cls-13" d="M88.06,168.76V153.39H79.61v-9.65H74.36v-6.16h5.25v-8H74.87v-6.16h4.74v-4.73H61.74v-1.1H79.61v-1.21H59.39v6.31h1.32v3.81H56.9v-2.79H50.59V110.07h8.8v4.11H79.61v-9.8h-30l-8,11.45h8.58v1.1H40.78l-.85,1.21h8.44v2.2h-10l-8.41,12H43.91v5H26.51L14,155.12V162H45.14v1.65H14v4H69.5v1.1H14v3.74h7.68v3.74H14v2.31H50.71v3.2H69.66v6.38H50.71v3.32h28.9v-12.9h8.45v-5.5H82v-4.29Zm-65.58-9.54H18.67v-3.81h3.81Zm9.32-2.74H25.64v-6.17H31.8ZM60.64,155H50v-1.61h-6l6-9.23V137H60.64Zm10.77-18H67.6v-3.81h3.81Z"/><path id="_Compound_Path_29" data-name="&lt;Compound Path&gt;" class="cls-13" d="M166.7,155.36a83.44,83.44,0,0,0,.51-9.32c0-8.77-1.2-16.33-3.52-22.62H136.57v-4.29h25.28c-5.87-11.71-16.44-17.92-31.14-17.92-8.66,0-15.88,2.17-21.55,6.33h35v2.2H106.5a30.88,30.88,0,0,0-4.38,5.1h7.16v5.5H99c-3.15,6.85-4.79,15.45-4.79,25.7,0,1.86.07,3.65.17,5.41h7.86v12.91H96.37c.41,1.52.86,3,1.37,4.4H123v4.29H99.58a35.16,35.16,0,0,0,2,3.41h38.56v2.2h-37c6.19,8.07,15.5,12.32,27.62,12.32,20.37,0,32.81-12,35.79-34H147.86v-1.65ZM146.33,111.5h3.78v3.78h-3.78Zm.8,36.13h-8.26c-.05,4.65-.38,8.33-1.31,11h5.83v8.8H129.53v-3.8c-5.94-.69-7.12-6.82-7.12-17.6,0-9.23.87-15,4.92-16.9V125.4h16.72v11.67h-5.66a55.7,55.7,0,0,1,.48,7.26h8.26Z"/><rect id="_Path_91" data-name="&lt;Path&gt;" class="cls-13" x="225.49" y="109.74" width="14.3" height="1.21"/><path id="_Compound_Path_30" data-name="&lt;Compound Path&gt;" class="cls-13" d="M239.79,153.39V137.1h-3.3v-6.16h3.3v-8H237v-6.16h2.79v-4.73h-14.3V128.7H214.26v-9.46h-.44V113.7h-.66v-6.16h.66v-3.16h-4.06l-3.37,4.81h5.87v1.1h-6.64l-.85,1.21h5.73v2.2h-7.27l-4.35,6.2H212.5v5.94H194.71l-5.56,7.92h11.47v20H175.11l-.93,1.33v.24h33.09V157H174.18v4h57.45v1.1H174.18v4.66h20.94v8.14H174.18v3.63h36.7v5.84h11.31v2.42H210.88v4.64h28.91v-12.9h8.44V153.39Zm-17.82,3H208.76v-3h-4.67l4.67-7.13v-8.75H222Zm11.57-26.08h-3.81v-3.81h3.81Z"/><rect id="_Path_92" data-name="&lt;Path&gt;" class="cls-13" x="225.49" y="104.38" width="14.3" height="3.15"/><rect id="_Path_93" data-name="&lt;Path&gt;" class="cls-13" x="1.76" y="150.31" width="8.34" height="6.16"/><rect id="_Path_94" data-name="&lt;Path&gt;" class="cls-13" x="81.29" y="120.34" width="6.16" height="6.16"/><rect id="_Path_95" data-name="&lt;Path&gt;" class="cls-13" x="89.1" y="123.86" width="3.81" height="3.81"/><rect id="_Path_96" data-name="&lt;Path&gt;" class="cls-13" x="172.23" y="135.31" width="0.65" height="6.16"/><rect id="_Path_97" data-name="&lt;Path&gt;" class="cls-13" x="243.42" y="113.69" width="6.16" height="6.16"/><rect id="_Path_98" data-name="&lt;Path&gt;" class="cls-13" x="251.23" y="117.22" width="3.81" height="3.81"/><rect id="_Path_99" data-name="&lt;Path&gt;" class="cls-13" x="179.86" y="129.58" width="3.81" height="3.81"/><rect id="_Path_100" data-name="&lt;Path&gt;" class="cls-13" x="161.73" y="111.5" width="3.78" height="3.78"/></g></g><g id="_Group_16" data-name="&lt;Group&gt;"><g id="_Group_17" data-name="&lt;Group&gt;" class="cls-12"><path id="_Compound_Path_31" data-name="&lt;Compound Path&gt;" class="cls-22" d="M84.89,143.74H79.64v-6.16h5.25v-8H80.16v-6.16h4.73v-4.73H67v-1.1H84.89v-1.21H64.08v-2.2H84.89v-8.81H54.17l-7.33,10.46h8.57v1.1H46.07l-.85,1.21h8.43v2.2h-10L19.29,155.12V162H50.42v1.65H19.29v4h55.5v1.1H19.29v8.14h35.4v1.65H56v12.22h28.9V178.55h8.45v-5.5h-6v-4.29h6V153.39H84.89ZM27.77,159.22H24v-3.81h3.81Zm9.32-2.74H30.92v-6.17h6.17Zm19.22-42.3h6.17v6.16H56.31Zm1.79,39.21H49.2l8.9-13.59ZM66,126.5H65v1.76H54.47v-7H65v1.47H66ZM76.69,137H74.5v1.84H66.36v-6.39H74.5v.74h2.19Z"/><path id="_Compound_Path_32" data-name="&lt;Compound Path&gt;" class="cls-22" d="M172,155.36a86,86,0,0,0,.5-9.32c0-8.77-1.2-16.33-3.52-22.62H141.85v-4.29h25.28c-5.87-11.71-16.44-17.92-31.14-17.92-8.65,0-15.87,2.17-21.55,6.33h35v2.2h-37.7c-8,7.48-12.29,19.76-12.29,36.3,0,8.8,1.21,16.4,3.54,22.72h25.28v4.29h-1.42v1.21H105.52c.41.76.84,1.5,1.29,2.2h38.56v2.2h-37C114.56,186.73,123.87,191,136,191c20.37,0,32.81-12,35.79-34H153.15v-1.65ZM151.61,111.5h3.78v3.78h-3.78ZM136,163.71c-7,0-8.29-6.21-8.29-17.67S129,128.48,136,128.48s8.18,6.17,8.18,17.56S142.86,163.71,136,163.71Z"/><path id="_Path_101" data-name="&lt;Path&gt;" class="cls-22" d="M217.1,158.75a82.21,82.21,0,0,0-11-1.74H179.46v1.74Z"/><path id="_Compound_Path_33" data-name="&lt;Compound Path&gt;" class="cls-22" d="M245.07,153.39V137.1h-3.3v-6.16h3.3v-8h-2.78v-6.16h2.78v-4.73H229.15V111h15.92v-1.21H226.21v-2.2h18.86v-2.75H214.76l-3.09,4.4h5.87v1.1H210.9l-.85,1.21h5.73v2.2h-7.27l-29,41.42v.24h33.09v1.17c2.71.48,5.4,1.07,8.07,1.65.82.18,1.63.37,2.45.57h6.22L224,153.49a.66.66,0,0,1,.94-.93l6.19,6.19h4.34V161h1.42v1.1H235.5v1l.69.69a.59.59,0,0,1,.18.54l.63.28c.78.32.43,1.6-.35,1.28-.39-.17-.77-.35-1.15-.54v1.44h-56V176h36.13v2.53h.58v10.24h28.9V178.55h8.44V153.39Zm-55.17-.81h-3.81v-3.81h3.81Zm9.32-2.75h-6.17v-6.16h6.17Zm19.06,3.56h-8.9l8.9-13.59Zm.16-39.69v-6.16h6.17v6.16Zm9.68,6.16h-3.81v-3.81h3.81Zm10.7,10.49h-2.77v2.75h-7v-9.68h7v3.12h2.77Z"/><rect id="_Path_102" data-name="&lt;Path&gt;" class="cls-22" x="7.04" y="150.31" width="8.34" height="6.16"/><rect id="_Path_103" data-name="&lt;Path&gt;" class="cls-22" x="86.58" y="120.34" width="6.16" height="6.16"/><rect id="_Path_104" data-name="&lt;Path&gt;" class="cls-22" x="94.38" y="123.86" width="3.81" height="3.81"/><rect id="_Path_105" data-name="&lt;Path&gt;" class="cls-22" x="177.52" y="135.31" width="8.34" height="6.16"/><rect id="_Path_106" data-name="&lt;Path&gt;" class="cls-22" x="248.71" y="113.69" width="6.16" height="6.16"/><rect id="_Path_107" data-name="&lt;Path&gt;" class="cls-22" x="256.51" y="117.22" width="3.81" height="3.81"/><rect id="_Path_108" data-name="&lt;Path&gt;" class="cls-22" x="185.14" y="129.58" width="3.81" height="3.81"/><rect id="_Path_109" data-name="&lt;Path&gt;" class="cls-22" x="167.02" y="111.5" width="3.78" height="3.78"/></g><g id="_Group_18" data-name="&lt;Group&gt;" class="cls-14"><path id="_Compound_Path_34" data-name="&lt;Compound Path&gt;" class="cls-22" d="M84.5,143.74H79.25v-6.16H84.5v-8H79.76v-6.16H84.5v-4.73H66.63v-1.1H84.5v-1.21H63.69v-2.2H84.5v-8.81H53.78l-7.33,10.46H55v1.1H45.67l-.84,1.21h8.43v2.2h-10L18.9,155.12V162H50v1.65H18.9v4H74.4v1.1H18.9v8.14H54.69v1.65h.91v12.22H84.5V178.55H93v-5.5h-6v-4.29h6V153.39H84.5ZM27.37,159.22h-3.8v-3.81h3.8Zm9.33-2.74H30.53v-6.17H36.7Zm19.22-42.3h6.16v6.16H55.92Zm1.79,39.21h-8.9l8.9-13.59ZM65.6,126.5H65v1.76H54.47v-7H65v1.47h.56ZM76.3,137H74.5v1.84H66.36v-6.39H74.5v.74h1.8Z"/><path id="_Compound_Path_35" data-name="&lt;Compound Path&gt;" class="cls-22" d="M171.59,155.36a83.44,83.44,0,0,0,.51-9.32c0-8.77-1.2-16.33-3.52-22.62H141.46v-4.29h25.28c-5.87-11.71-16.44-17.92-31.14-17.92-8.66,0-15.87,2.17-21.55,6.33h35v2.2h-37.7c-8,7.48-12.29,19.76-12.29,36.3,0,8.8,1.21,16.4,3.53,22.72h25.29v4.29h-1v1.21H105.12c.42.76.85,1.5,1.3,2.2H145v2.2H108c6.19,8.07,15.5,12.32,27.62,12.32,20.37,0,32.81-12,35.79-34H152.75v-1.65ZM151.22,111.5H155v3.78h-3.78ZM135.6,163.71c-7,0-8.29-6.21-8.29-17.67s1.32-17.56,8.29-17.56,8.18,6.17,8.18,17.56S142.47,163.71,135.6,163.71Z"/><path id="_Path_110" data-name="&lt;Path&gt;" class="cls-22" d="M217.1,158.75a82.21,82.21,0,0,0-11-1.74H179.07v1.74Z"/><path id="_Compound_Path_36" data-name="&lt;Compound Path&gt;" class="cls-22" d="M244.68,153.39V137.1h-3.3v-6.16h3.3v-8H241.9v-6.16h2.78v-4.73H228.76V111h15.92v-1.21H225.82v-2.2h18.86v-2.75H214.37l-3.09,4.4h5.87v1.1h-6.64l-.85,1.21h5.73v2.2h-7.27l-29.05,41.42v.24h33.09v1.1c2.84.49,5.67,1.11,8.46,1.72.82.18,1.63.37,2.45.57h6.22L224,153.49a.66.66,0,0,1,.94-.93l6.19,6.19h4.34V161h1v1.1h-1v1l.69.69a.59.59,0,0,1,.18.54l.63.28c.78.32.43,1.6-.35,1.28-.39-.17-.77-.35-1.15-.54v1.44H179.07V176h36.52v2.53h.18v10.24h28.91V178.55h8.44V153.39Zm-55.18-.81h-3.8v-3.81h3.8Zm9.33-2.75h-6.17v-6.16h6.17Zm19,3.56H209l8.9-13.59Zm.17-39.69v-6.16h6.16v6.16Zm9.68,6.16h-3.81v-3.81h3.81Zm10.7,10.49h-2.38v2.75h-7v-9.68h7v3.12h2.38Z"/><rect id="_Path_111" data-name="&lt;Path&gt;" class="cls-22" x="6.65" y="150.31" width="8.34" height="6.16"/><rect id="_Path_112" data-name="&lt;Path&gt;" class="cls-22" x="86.18" y="120.34" width="6.16" height="6.16"/><rect id="_Path_113" data-name="&lt;Path&gt;" class="cls-22" x="93.99" y="123.86" width="3.81" height="3.81"/><rect id="_Path_114" data-name="&lt;Path&gt;" class="cls-22" x="177.12" y="135.31" width="8.34" height="6.16"/><rect id="_Path_115" data-name="&lt;Path&gt;" class="cls-22" x="248.31" y="113.69" width="6.16" height="6.16"/><rect id="_Path_116" data-name="&lt;Path&gt;" class="cls-22" x="256.12" y="117.22" width="3.81" height="3.81"/><rect id="_Path_117" data-name="&lt;Path&gt;" class="cls-22" x="184.75" y="129.58" width="3.81" height="3.81"/><rect id="_Path_118" data-name="&lt;Path&gt;" class="cls-22" x="166.62" y="111.5" width="3.78" height="3.78"/></g><g id="_Group_19" data-name="&lt;Group&gt;" class="cls-15"><path id="_Compound_Path_37" data-name="&lt;Compound Path&gt;" class="cls-22" d="M84.11,143.74H78.86v-6.16h5.25v-8H79.37v-6.16h4.74v-4.73H66.24v-1.1H84.11v-1.21H63.3v-2.2H84.11v-8.81H53.39l-7.34,10.46h8.58v1.1H45.28l-.85,1.21h8.44v2.2h-10L18.5,155.12V162H49.63v1.65H18.5v4H74v1.1H18.5v8.14H54.69v1.65h.52v12.22h28.9V178.55h8.44v-5.5h-6v-4.29h6V153.39H84.11ZM27,159.22H23.17v-3.81H27Zm9.32-2.74H30.14v-6.17H36.3Zm19.23-42.3h6.16v6.16H55.53Zm1.79,39.21h-8.9l8.9-13.59Zm7.89-26.89H65v1.76H54.47v-7H65v1.47h.17ZM75.91,137H74.5v1.84H66.36v-6.39H74.5v.74h1.41Z"/><path id="_Compound_Path_38" data-name="&lt;Compound Path&gt;" class="cls-22" d="M171.2,155.36a83.44,83.44,0,0,0,.51-9.32c0-8.77-1.2-16.33-3.52-22.62H141.07v-4.29h25.28c-5.87-11.71-16.44-17.92-31.14-17.92-8.66,0-15.88,2.17-21.55,6.33h35v2.2H111c-8,7.48-12.29,19.76-12.29,36.3,0,8.8,1.21,16.4,3.53,22.72h25.29v4.29h-.64v1.21H104.73c.42.76.84,1.5,1.3,2.2h38.56v2.2h-37c6.19,8.07,15.5,12.32,27.62,12.32,20.37,0,32.81-12,35.79-34H152.36v-1.65ZM150.83,111.5h3.78v3.78h-3.78Zm-15.62,52.21c-7,0-8.3-6.21-8.3-17.67s1.33-17.56,8.3-17.56,8.18,6.17,8.18,17.56S142.08,163.71,135.21,163.71Z"/><path id="_Path_119" data-name="&lt;Path&gt;" class="cls-22" d="M217.1,158.75a82.21,82.21,0,0,0-11-1.74H178.68v1.74Z"/><path id="_Compound_Path_39" data-name="&lt;Compound Path&gt;" class="cls-22" d="M244.29,153.39V137.1H241v-6.16h3.3v-8H241.5v-6.16h2.79v-4.73H228.37V111h15.92v-1.21H225.43v-2.2h18.86v-2.75H214l-3.08,4.4h5.87v1.1h-6.64l-.85,1.21H215v2.2h-7.27l-29,41.42v.24h33.09v1c3,.5,5.93,1.15,8.85,1.78.82.18,1.63.37,2.45.57h6.22L224,153.49a.66.66,0,0,1,.94-.93l6.19,6.19h4.34V161h.63v1.1h-.63v1l.69.69a.59.59,0,0,1,.18.54l.63.28c.78.32.43,1.6-.35,1.28-.39-.17-.77-.35-1.15-.54v1.44H178.68V176h36.91v7h-.21v5.72h28.91V178.55h8.44V153.39Zm-55.18-.81H185.3v-3.81h3.81Zm9.32-2.75h-6.16v-6.16h6.16Zm19.06,3.56h-8.9l8.9-13.59Zm.17-39.69v-6.16h6.16v6.16Zm9.68,6.16h-3.81v-3.81h3.81ZM238,130.35h-2v2.75h-7v-9.68h7v3.12h2Z"/><rect id="_Path_120" data-name="&lt;Path&gt;" class="cls-22" x="6.26" y="150.31" width="8.34" height="6.16"/><rect id="_Path_121" data-name="&lt;Path&gt;" class="cls-22" x="85.79" y="120.34" width="6.16" height="6.16"/><rect id="_Path_122" data-name="&lt;Path&gt;" class="cls-22" x="93.6" y="123.86" width="3.81" height="3.81"/><rect id="_Path_123" data-name="&lt;Path&gt;" class="cls-22" x="176.73" y="135.31" width="8.34" height="6.16"/><rect id="_Path_124" data-name="&lt;Path&gt;" class="cls-22" x="247.92" y="113.69" width="6.16" height="6.16"/><rect id="_Path_125" data-name="&lt;Path&gt;" class="cls-22" x="255.73" y="117.22" width="3.81" height="3.81"/><rect id="_Path_126" data-name="&lt;Path&gt;" class="cls-22" x="184.36" y="129.58" width="3.81" height="3.81"/><rect id="_Path_127" data-name="&lt;Path&gt;" class="cls-22" x="166.23" y="111.5" width="3.78" height="3.78"/></g><g id="_Group_20" data-name="&lt;Group&gt;" class="cls-16"><path id="_Compound_Path_40" data-name="&lt;Compound Path&gt;" class="cls-22" d="M83.72,143.74H78.47v-6.16h5.25v-8H79v-6.16h4.74v-4.73H65.85v-1.1H83.72v-1.21H62.91v-2.2H83.72v-8.81H53l-7.33,10.46h8.58v1.1H44.89L44,118.14h8.43v2.2h-10L18.11,155.12V162H49.24v1.65H18.11v4h55.5v1.1H18.11v8.14H54.69v1.65h.12v12.22H83.72V178.55h8.44v-5.5h-6v-4.29h6V153.39H83.72ZM26.59,159.22H22.78v-3.81h3.81Zm9.32-2.74H29.75v-6.17h6.16Zm19.23-42.3H61.3v6.16H55.14Zm1.78,39.21H48l8.9-13.59ZM65,128.26H54.47v-7H65ZM75.52,137h-1v1.84H66.36v-6.39H74.5v.74h1Z"/><path id="_Compound_Path_41" data-name="&lt;Compound Path&gt;" class="cls-22" d="M170.81,155.36a83.51,83.51,0,0,0,.5-9.32c0-8.77-1.19-16.33-3.51-22.62H140.68v-4.29H166c-5.87-11.71-16.44-17.92-31.14-17.92-8.66,0-15.88,2.17-21.55,6.33h35v2.2h-37.7c-8,7.48-12.29,19.76-12.29,36.3,0,8.8,1.2,16.4,3.53,22.72h25.28v4.29h-.24v1.21H104.34c.42.76.84,1.5,1.3,2.2H144.2v2.2h-37c6.18,8.07,15.49,12.32,27.62,12.32,20.37,0,32.81-12,35.79-34H152v-1.65ZM150.43,111.5h3.78v3.78h-3.78Zm-15.61,52.21c-7,0-8.3-6.21-8.3-17.67s1.32-17.56,8.3-17.56S143,134.65,143,146,141.69,163.71,134.82,163.71Z"/><path id="_Compound_Path_42" data-name="&lt;Compound Path&gt;" class="cls-22" d="M243.9,153.39V137.1h-3.3v-6.16h3.3v-8h-2.79v-6.16h2.79v-4.73H228V111H243.9v-1.21H225v-2.2H243.9v-2.75H213.58l-3.08,4.4h5.87v1.1h-6.64l-.85,1.21h5.72v2.2h-7.27l-29,41.42v.24h33.08v1c3.11.5,6.2,1.18,9.25,1.84.82.18,1.63.37,2.45.57h6.22L224,153.49a.66.66,0,0,1,.94-.93l6.19,6.19h4.34V161h.24v1.1h-.24v1l.69.69a.59.59,0,0,1,.18.54l.63.28c.78.32.43,1.6-.35,1.28-.39-.17-.77-.35-1.15-.54v1.44H178.29V176h37.3v7H215v5.72H243.9V178.55h8.44V153.39Zm-55.18-.81h-3.81v-3.81h3.81Zm9.32-2.75h-6.16v-6.16H198Zm19.06,3.56h-8.9l8.9-13.59Zm.17-39.69v-6.16h6.16v6.16Zm9.68,6.16h-3.81v-3.81H227Zm10.7,10.49h-1.6v2.75h-7v-9.68h7v3.12h1.6Z"/><path id="_Path_128" data-name="&lt;Path&gt;" class="cls-22" d="M217.1,158.75a82.21,82.21,0,0,0-11-1.74H178.29v1.74Z"/><rect id="_Path_129" data-name="&lt;Path&gt;" class="cls-22" x="5.87" y="150.31" width="8.34" height="6.16"/><rect id="_Path_130" data-name="&lt;Path&gt;" class="cls-22" x="85.4" y="120.34" width="6.16" height="6.16"/><rect id="_Path_131" data-name="&lt;Path&gt;" class="cls-22" x="93.21" y="123.86" width="3.81" height="3.81"/><rect id="_Path_132" data-name="&lt;Path&gt;" class="cls-22" x="176.34" y="135.31" width="8.34" height="6.16"/><rect id="_Path_133" data-name="&lt;Path&gt;" class="cls-22" x="247.53" y="113.69" width="6.16" height="6.16"/><rect id="_Path_134" data-name="&lt;Path&gt;" class="cls-22" x="255.34" y="117.22" width="3.81" height="3.81"/><rect id="_Path_135" data-name="&lt;Path&gt;" class="cls-22" x="183.97" y="129.58" width="3.81" height="3.81"/><rect id="_Path_136" data-name="&lt;Path&gt;" class="cls-22" x="165.84" y="111.5" width="3.78" height="3.78"/></g><g id="_Group_21" data-name="&lt;Group&gt;" class="cls-17"><path id="_Compound_Path_43" data-name="&lt;Compound Path&gt;" class="cls-22" d="M83.33,143.74H78.08v-6.16h5.25v-8H78.59v-6.16h4.74v-4.73H65.45v-1.1H83.33v-1.21H62.52v-2.2H83.33v-8.81H52.6l-7.33,10.46h8.57v1.1H44.5l-.85,1.21h8.43v2.2h-10L17.72,155.12V162H48.85v1.65H17.72v4h55.5v1.1H17.72v8.14h37v7.49h-.27v6.38H83.33V178.55h8.44v-5.5h-6v-4.29h6V153.39H83.33ZM26.2,159.22H22.39v-3.81H26.2Zm9.32-2.74H29.36v-6.17h6.16Zm19.23-42.3h6.16v6.16H54.75Zm1.78,39.21h-8.9l8.9-13.59ZM65,128.26H54.47v-7H65ZM75.13,137H74.5v1.84H66.36v-6.39H74.5v.74h.63Z"/><path id="_Compound_Path_44" data-name="&lt;Compound Path&gt;" class="cls-22" d="M170.42,155.36a83.51,83.51,0,0,0,.5-9.32c0-8.77-1.2-16.33-3.51-22.62H140.29v-4.29h25.28c-5.87-11.71-16.45-17.92-31.14-17.92-8.66,0-15.88,2.17-21.56,6.33h35v2.2h-37.7c-8,7.48-12.29,19.76-12.29,36.3,0,8.8,1.2,16.4,3.53,22.72h25.28v2.42h.15v3.08H104c.42.76.84,1.5,1.3,2.2h38.56v2.2h-37C113,186.73,122.3,191,134.43,191c20.37,0,32.81-12,35.79-34H151.58v-1.65ZM150,111.5h3.78v3.78H150Zm-15.61,52.21c-7,0-8.3-6.21-8.3-17.67s1.32-17.56,8.3-17.56,8.17,6.17,8.17,17.56S141.3,163.71,134.43,163.71Z"/><path id="_Path_137" data-name="&lt;Path&gt;" class="cls-22" d="M217.1,158.75a82.21,82.21,0,0,0-11-1.74H177.9v1.74Z"/><path id="_Compound_Path_45" data-name="&lt;Compound Path&gt;" class="cls-22" d="M243.51,153.39V137.1h-3.3v-6.16h3.3v-8h-2.79v-6.16h2.79v-4.73H227.58V111h15.93v-1.21H224.65v-2.2h18.86v-2.75H213.19l-3.08,4.4H216v1.1h-6.64l-.84,1.21h5.72v2.2h-7.27l-29,41.42v.24H211v.92c3.24.51,6.46,1.21,9.64,1.9.82.18,1.63.37,2.45.57h6.22L224,153.49a.66.66,0,0,1,.94-.93l6.19,6.19h4.34v4.34l.69.69a.59.59,0,0,1,.18.54l.63.28c.78.32.43,1.6-.35,1.28-.39-.17-.77-.35-1.15-.54v1.44H177.9V176h37.69v7h-1v5.72h28.91V178.55H252V153.39Zm-55.18-.81h-3.81v-3.81h3.81Zm9.32-2.75h-6.16v-6.16h6.16Zm19.06,3.56h-8.9l8.9-13.59Zm.17-39.69v-6.16H223v6.16Zm9.67,6.16h-3.8v-3.81h3.8Zm10.71,10.49h-1.21v2.75h-7v-9.68h7v3.12h1.21Z"/><rect id="_Path_138" data-name="&lt;Path&gt;" class="cls-22" x="5.48" y="150.31" width="8.34" height="6.16"/><rect id="_Path_139" data-name="&lt;Path&gt;" class="cls-22" x="85.01" y="120.34" width="6.16" height="6.16"/><rect id="_Path_140" data-name="&lt;Path&gt;" class="cls-22" x="92.81" y="123.86" width="3.81" height="3.81"/><rect id="_Path_141" data-name="&lt;Path&gt;" class="cls-22" x="175.95" y="135.31" width="8.34" height="6.16"/><rect id="_Path_142" data-name="&lt;Path&gt;" class="cls-22" x="247.14" y="113.69" width="6.16" height="6.16"/><rect id="_Path_143" data-name="&lt;Path&gt;" class="cls-22" x="254.94" y="117.22" width="3.81" height="3.81"/><rect id="_Path_144" data-name="&lt;Path&gt;" class="cls-22" x="183.58" y="129.58" width="3.81" height="3.81"/><rect id="_Path_145" data-name="&lt;Path&gt;" class="cls-22" x="165.45" y="111.5" width="3.78" height="3.78"/></g><g id="_Group_22" data-name="&lt;Group&gt;" class="cls-18"><path id="_Compound_Path_46" data-name="&lt;Compound Path&gt;" class="cls-22" d="M82.94,143.74H77.69v-6.16h5.25v-8H78.2v-6.16h4.74v-4.73H65.06v-1.1H82.94v-1.21H62.13v-2.2H82.94v-8.81H52.21l-7.33,10.46h8.57v1.1H44.11l-.85,1.21h8.43v2.2h-10L17.33,155.12V162H48.46v1.65H17.33v4h55.5v1.1H17.33v8.14H54.69v7.49H54v6.38H82.94V178.55h8.44v-5.5h-6v-4.29h6V153.39H82.94ZM25.81,159.22H22v-3.81h3.81Zm9.32-2.74H29v-6.17h6.16Zm19.23-42.3h6.16v6.16H54.36Zm1.78,39.21h-8.9l8.9-13.59ZM65,128.26H54.47v-7H65Zm9.7,8.73H74.5v1.84H66.36v-6.39H74.5v.74h.24Z"/><path id="_Compound_Path_47" data-name="&lt;Compound Path&gt;" class="cls-22" d="M170,155.36a83.51,83.51,0,0,0,.5-9.32c0-8.77-1.2-16.33-3.51-22.62H139.9v-4.29h25.28c-5.87-11.71-16.45-17.92-31.15-17.92-8.65,0-15.87,2.17-21.55,6.33h35.05v2.2h-37.7c-8,7.48-12.29,19.76-12.29,36.3,0,8.8,1.2,16.4,3.53,22.72h25.28v2.42h.54v3.08H103.56c.41.76.84,1.5,1.3,2.2h38.56v2.2h-37C112.6,186.73,121.91,191,134,191c20.37,0,32.82-12,35.8-34H151.19v-1.65ZM149.65,111.5h3.78v3.78h-3.78ZM134,163.71c-7,0-8.29-6.21-8.29-17.67s1.32-17.56,8.29-17.56,8.18,6.17,8.18,17.56S140.91,163.71,134,163.71Z"/><path id="_Path_146" data-name="&lt;Path&gt;" class="cls-22" d="M217.1,158.75a82.21,82.21,0,0,0-11-1.74H177.51v1.74Z"/><path id="_Compound_Path_48" data-name="&lt;Compound Path&gt;" class="cls-22" d="M243.12,153.39V137.1h-3.3v-6.16h3.3v-8h-2.79v-6.16h2.79v-4.73H227.19V111h15.93v-1.21H224.26v-2.2h18.86v-2.75H212.8l-3.08,4.4h5.86v1.1h-6.64l-.85,1.21h5.73v2.2h-7.27l-29,41.42v.24h33.08v.85c3.37.52,6.72,1.25,10,2,.82.18,1.63.37,2.45.57h6.22L224,153.49a.66.66,0,0,1,.94-.93l6.19,6.19h4.34v4.34l.69.69a.59.59,0,0,1,.18.54l.63.28c.78.32.43,1.6-.35,1.28-.39-.17-.77-.35-1.15-.54v1.44h-58V176h38.08v7h-1.38v5.72h28.91V178.55h8.44V153.39Zm-55.18-.81h-3.81v-3.81h3.81Zm9.32-2.75H191.1v-6.16h6.16Zm19.06,3.56h-8.9l8.9-13.59Zm.17-39.69v-6.16h6.16v6.16Zm9.67,6.16h-3.81v-3.81h3.81Zm10.71,10.49h-.82v2.75h-7v-9.68h7v3.12h.82Z"/><rect id="_Path_147" data-name="&lt;Path&gt;" class="cls-22" x="5.09" y="150.31" width="8.34" height="6.16"/><rect id="_Path_148" data-name="&lt;Path&gt;" class="cls-22" x="84.62" y="120.34" width="6.16" height="6.16"/><rect id="_Path_149" data-name="&lt;Path&gt;" class="cls-22" x="92.42" y="123.86" width="3.81" height="3.81"/><rect id="_Path_150" data-name="&lt;Path&gt;" class="cls-22" x="175.56" y="135.31" width="8.34" height="6.16"/><rect id="_Path_151" data-name="&lt;Path&gt;" class="cls-22" x="246.75" y="113.69" width="6.16" height="6.16"/><rect id="_Path_152" data-name="&lt;Path&gt;" class="cls-22" x="254.55" y="117.22" width="3.81" height="3.81"/><rect id="_Path_153" data-name="&lt;Path&gt;" class="cls-22" x="183.18" y="129.58" width="3.81" height="3.81"/><rect id="_Path_154" data-name="&lt;Path&gt;" class="cls-22" x="165.06" y="111.5" width="3.78" height="3.78"/></g><g id="_Group_23" data-name="&lt;Group&gt;" class="cls-19"><path id="_Compound_Path_49" data-name="&lt;Compound Path&gt;" class="cls-22" d="M82.55,143.74H77.3v-6.16h5.25v-8H77.81v-6.16h4.74v-4.73H64.67v-1.1H82.55v-1.21H61.74v-2.2H82.55v-8.81H51.82l-7.33,10.46h8.57v1.1H43.72l-.85,1.21H51.3v2.2h-10L16.94,155.12V162H48.07v1.65H16.94v4h55.5v1.1H16.94v8.14H54.69v7.49h-1v6.38H82.55V178.55H91v-5.5H85v-4.29h6V153.39H82.55ZM25.42,159.22H21.61v-3.81h3.81Zm9.32-2.74H28.58v-6.17h6.16ZM54,114.18h6.17v6.16H54Zm1.79,39.21h-8.9l8.9-13.59ZM65,128.26H54.47v-7H65Zm9.46,10.57H66.36v-6.39H74.5Z"/><path id="_Compound_Path_50" data-name="&lt;Compound Path&gt;" class="cls-22" d="M169.64,155.36a83.51,83.51,0,0,0,.5-9.32c0-8.77-1.2-16.33-3.52-22.62H139.5v-4.29h25.28c-5.86-11.71-16.44-17.92-31.14-17.92-8.65,0-15.87,2.17-21.55,6.33h35v2.2H109.44c-8,7.48-12.29,19.76-12.29,36.3,0,8.8,1.2,16.4,3.53,22.72H126v2.42h.93v3.08H103.17c.41.76.84,1.5,1.3,2.2H143v2.2H106c6.18,8.07,15.49,12.32,27.61,12.32,20.37,0,32.81-12,35.79-34H150.8v-1.65ZM149.26,111.5H153v3.78h-3.78Zm-15.62,52.21c-7,0-8.29-6.21-8.29-17.67s1.32-17.56,8.29-17.56,8.18,6.17,8.18,17.56S140.52,163.71,133.64,163.71Z"/><path id="_Path_155" data-name="&lt;Path&gt;" class="cls-22" d="M217.1,158.75a82.21,82.21,0,0,0-11-1.74h-29v1.74Z"/><path id="_Compound_Path_51" data-name="&lt;Compound Path&gt;" class="cls-22" d="M242.72,153.39V137.1h-3.29v-6.16h3.29v-8h-2.78v-6.16h2.78v-4.73H226.8V111h15.92v-1.21H223.87v-2.2h18.85v-2.75H212.41l-3.09,4.4h5.87v1.1h-6.64l-.85,1.21h5.73v2.2h-7.27l-29,41.42v.24H210.2v.79c3.5.52,7,1.29,10.42,2,.82.18,1.63.37,2.45.57h6.22L224,153.49a.66.66,0,0,1,.94-.93l6.19,6.19h4.34v4.34l.69.69a.59.59,0,0,1,.18.54l.63.28c.78.32.43,1.6-.35,1.28-.39-.17-.77-.35-1.15-.54v1.44H177.12V176h38.47v7h-1.77v5.72h28.9V178.55h8.45V153.39Zm-55.17-.81h-3.81v-3.81h3.81Zm9.32-2.75h-6.16v-6.16h6.16Zm19.06,3.56H207l8.9-13.59Zm.16-39.69v-6.16h6.17v6.16Zm9.68,6.16H222v-3.81h3.81Zm10.7,10.49h-.42v2.75h-7v-9.68h7v3.12h.42Z"/><rect id="_Path_156" data-name="&lt;Path&gt;" class="cls-22" x="4.7" y="150.31" width="8.34" height="6.16"/><rect id="_Path_157" data-name="&lt;Path&gt;" class="cls-22" x="84.23" y="120.34" width="6.16" height="6.16"/><rect id="_Path_158" data-name="&lt;Path&gt;" class="cls-22" x="92.03" y="123.86" width="3.81" height="3.81"/><rect id="_Path_159" data-name="&lt;Path&gt;" class="cls-22" x="175.17" y="135.31" width="8.34" height="6.16"/><rect id="_Path_160" data-name="&lt;Path&gt;" class="cls-22" x="246.36" y="113.69" width="6.16" height="6.16"/><rect id="_Path_161" data-name="&lt;Path&gt;" class="cls-22" x="254.16" y="117.22" width="3.81" height="3.81"/><rect id="_Path_162" data-name="&lt;Path&gt;" class="cls-22" x="182.79" y="129.58" width="3.81" height="3.81"/><rect id="_Path_163" data-name="&lt;Path&gt;" class="cls-22" x="164.67" y="111.5" width="3.78" height="3.78"/></g><g id="_Group_24" data-name="&lt;Group&gt;" class="cls-20"><path id="_Compound_Path_52" data-name="&lt;Compound Path&gt;" class="cls-22" d="M82.16,143.74H76.9v-6.16h5.26v-8H77.42v-6.16h4.74v-4.73H64.28v-1.1H82.16v-1.21H61.35v-2.2H82.16v-8.81H51.43L44.1,115.83h8.57v1.1H43.33l-.85,1.21h8.43v2.2h-10L16.55,155.12V162H47.68v1.65H16.55v4h55.5v1.1H16.55v8.14H54.69v7.49H53.25v6.38H82.16V178.55H90.6v-5.5h-6v-4.29h6V153.39H82.16ZM25,159.22H21.22v-3.81H25Zm9.32-2.74H28.18v-6.17h6.17Zm19.22-42.3h6.17v6.16H53.57Zm1.79,39.21h-8.9l8.9-13.59ZM65,128.26H54.47v-7H65Zm9.46,10.57H66.36v-6.39H74.5Z"/><path id="_Compound_Path_53" data-name="&lt;Compound Path&gt;" class="cls-22" d="M169.25,155.36a86,86,0,0,0,.5-9.32c0-8.77-1.2-16.33-3.52-22.62H139.11v-4.29h25.28c-5.87-11.71-16.44-17.92-31.14-17.92-8.65,0-15.87,2.17-21.55,6.33h35v2.2H109c-8,7.48-12.29,19.76-12.29,36.3,0,8.8,1.21,16.4,3.54,22.72h25.28v2.42h1.32v3.08H102.78c.41.76.84,1.5,1.29,2.2h38.57v2.2h-37c6.19,8.07,15.5,12.32,27.62,12.32,20.37,0,32.81-12,35.79-34H150.41v-1.65ZM148.87,111.5h3.78v3.78h-3.78Zm-15.62,52.21c-7,0-8.29-6.21-8.29-17.67s1.32-17.56,8.29-17.56,8.18,6.17,8.18,17.56S140.13,163.71,133.25,163.71Z"/><path id="_Path_164" data-name="&lt;Path&gt;" class="cls-22" d="M217.1,158.75a82.21,82.21,0,0,0-11-1.74H176.73v1.74Z"/><path id="_Compound_Path_54" data-name="&lt;Compound Path&gt;" class="cls-22" d="M242.33,153.39V137.1H239v-6.16h3.3v-8h-2.78v-6.16h2.78v-4.73H226.41V111h15.92v-1.21H223.48v-2.2h18.85v-2.75H212l-3.09,4.4h5.87v1.1h-6.64l-.85,1.21H213v2.2h-7.27l-29,41.42v.24h33.08v.73c3.64.52,7.25,1.32,10.81,2.09.82.18,1.63.37,2.45.57h6.22L224,153.49a.66.66,0,0,1,.94-.93l6.19,6.19h4.34v4.34l.69.69a.59.59,0,0,1,.18.54l.63.28c.78.32.43,1.6-.35,1.28-.39-.17-.77-.35-1.15-.54v1.44H176.73V176h38.86v7h-2.16v5.72h28.9V178.55h8.45V153.39Zm-55.17-.81h-3.81v-3.81h3.81Zm9.32-2.75h-6.17v-6.16h6.17Zm19.06,3.56h-8.9l8.9-13.59Zm.16-39.69v-6.16h6.17v6.16Zm9.68,6.16h-3.81v-3.81h3.81Zm10.7,10.49h0v2.75h-7v-9.68h7v3.12h0Z"/><rect id="_Path_165" data-name="&lt;Path&gt;" class="cls-22" x="4.3" y="150.31" width="8.34" height="6.16"/><rect id="_Path_166" data-name="&lt;Path&gt;" class="cls-22" x="83.84" y="120.34" width="6.16" height="6.16"/><rect id="_Path_167" data-name="&lt;Path&gt;" class="cls-22" x="91.64" y="123.86" width="3.81" height="3.81"/><rect id="_Path_168" data-name="&lt;Path&gt;" class="cls-22" x="174.78" y="135.31" width="8.34" height="6.16"/><rect id="_Path_169" data-name="&lt;Path&gt;" class="cls-22" x="245.97" y="113.69" width="6.16" height="6.16"/><rect id="_Path_170" data-name="&lt;Path&gt;" class="cls-22" x="253.77" y="117.22" width="3.81" height="3.81"/><rect id="_Path_171" data-name="&lt;Path&gt;" class="cls-22" x="182.4" y="129.58" width="3.81" height="3.81"/><rect id="_Path_172" data-name="&lt;Path&gt;" class="cls-22" x="164.28" y="111.5" width="3.78" height="3.78"/></g><g id="_Group_25" data-name="&lt;Group&gt;" class="cls-21"><path id="_Compound_Path_55" data-name="&lt;Compound Path&gt;" class="cls-22" d="M81.76,143.74H76.51v-6.16h5.25v-8H77v-6.16h4.73v-4.73H63.89v-1.1H81.76v-1.21H61v-2.2H81.76v-8.81H51l-7.33,10.46h8.57v1.1H42.94l-.85,1.21h8.43v2.2h-10L16.16,155.12V162H47.29v1.65H16.16v4h55.5v1.1H16.16v8.14H54.69v7.49H52.86v6.38h28.9V178.55h8.45v-5.5h-6v-4.29h6V153.39H81.76ZM24.64,159.22H20.83v-3.81h3.81ZM34,156.48H27.79v-6.17H34Zm19.22-42.3h6.16v6.16H53.18ZM55,153.39h-8.9L55,139.8ZM65,128.26H54.47v-7H65Zm9.46,10.57H66.36v-6.39H74.5Z"/><path id="_Compound_Path_56" data-name="&lt;Compound Path&gt;" class="cls-22" d="M168.86,155.36a86,86,0,0,0,.5-9.32c0-8.77-1.2-16.33-3.52-22.62H138.72v-4.29H164c-5.87-11.71-16.44-17.92-31.14-17.92-8.65,0-15.87,2.17-21.55,6.33h35v2.2h-37.7c-8,7.48-12.29,19.76-12.29,36.3,0,8.8,1.21,16.4,3.53,22.72h25.29v2.42h1.71v3.08h-24.5c.41.76.84,1.5,1.29,2.2h38.56v2.2h-37c6.19,8.07,15.5,12.32,27.62,12.32,20.37,0,32.81-12,35.79-34H150v-1.65ZM148.48,111.5h3.78v3.78h-3.78Zm-15.62,52.21c-7,0-8.29-6.21-8.29-17.67s1.32-17.56,8.29-17.56S141,134.65,141,146,139.73,163.71,132.86,163.71Z"/><path id="_Path_173" data-name="&lt;Path&gt;" class="cls-22" d="M217.1,158.75a82.21,82.21,0,0,0-11-1.74H176.33v1.74Z"/><path id="_Compound_Path_57" data-name="&lt;Compound Path&gt;" class="cls-22" d="M241.94,153.39V137.1h-3.3v-6.16h3.3v-8h-2.78v-6.16h2.78v-4.73H226V111h15.92v-1.21H223.08v-2.2h18.86v-2.75H211.63l-3.09,4.4h5.87v1.1h-6.64l-.85,1.21h5.73v2.2h-7.27l-29,41.42v.24h33.09v.69c3.77.5,7.51,1.33,11.2,2.13.82.18,1.63.37,2.45.57h6.22L224,153.49a.66.66,0,0,1,.94-.93l6.19,6.19h4.34v4.34l.69.69a.59.59,0,0,1,.18.54l.63.28c.78.32.43,1.6-.35,1.28-.39-.17-.77-.35-1.15-.54v1.44H176.33V176h39.26v7H213v5.72h28.9V178.55h8.44V153.39Zm-55.17-.81H183v-3.81h3.81Zm9.32-2.75h-6.17v-6.16h6.17Zm19.06,3.56h-8.9l8.9-13.59Zm.16-39.69v-6.16h6.16v6.16Zm9.68,6.16h-3.81v-3.81H225Zm11.06,13.24h-7v-9.68h7Z"/><rect id="_Path_174" data-name="&lt;Path&gt;" class="cls-22" x="3.91" y="150.31" width="8.34" height="6.16"/><rect id="_Path_175" data-name="&lt;Path&gt;" class="cls-22" x="83.45" y="120.34" width="6.16" height="6.16"/><rect id="_Path_176" data-name="&lt;Path&gt;" class="cls-22" x="91.25" y="123.86" width="3.81" height="3.81"/><rect id="_Path_177" data-name="&lt;Path&gt;" class="cls-22" x="174.39" y="135.31" width="8.34" height="6.16"/><rect id="_Path_178" data-name="&lt;Path&gt;" class="cls-22" x="245.58" y="113.69" width="6.16" height="6.16"/><rect id="_Path_179" data-name="&lt;Path&gt;" class="cls-22" x="253.38" y="117.22" width="3.81" height="3.81"/><rect id="_Path_180" data-name="&lt;Path&gt;" class="cls-22" x="182.01" y="129.58" width="3.81" height="3.81"/><rect id="_Path_181" data-name="&lt;Path&gt;" class="cls-22" x="163.89" y="111.5" width="3.78" height="3.78"/></g><g id="_Group_26" data-name="&lt;Group&gt;"><path id="_Compound_Path_58" data-name="&lt;Compound Path&gt;" class="cls-22" d="M81.37,143.74H76.12v-6.16h5.25v-8H76.63v-6.16h4.74v-4.73H63.5v-1.1H81.37v-1.21H60.56v-2.2H81.37v-8.81H50.65l-7.33,10.46h8.57v1.1H42.54l-.84,1.21h8.43v2.2h-10L15.77,155.12V162H46.9v1.65H15.77v4h55.5v1.1H15.77v8.14H54.69v7.49H52.47v6.38h28.9V178.55h8.45v-5.5h-6v-4.29h6V153.39H81.37ZM24.24,159.22h-3.8v-3.81h3.8Zm9.32-2.74H27.4v-6.17h6.16Zm19.23-42.3H59v6.16H52.79Zm1.79,39.21h-8.9l8.9-13.59ZM65,128.26H54.47v-7H65Zm9.46,10.57H66.36v-6.39H74.5Z"/><path id="_Compound_Path_59" data-name="&lt;Compound Path&gt;" class="cls-22" d="M168.46,155.36A83.44,83.44,0,0,0,169,146c0-8.77-1.2-16.33-3.52-22.62H138.33v-4.29h25.28c-5.87-11.71-16.44-17.92-31.14-17.92-8.66,0-15.88,2.17-21.55,6.33h35v2.2h-37.7C100.22,117.22,96,129.5,96,146c0,8.8,1.21,16.4,3.53,22.72h25.29v2.42h2.1v3.08H102c.42.76.85,1.5,1.3,2.2h38.56v2.2h-37C111,186.73,120.35,191,132.47,191c20.37,0,32.81-12,35.79-34H149.62v-1.65ZM148.09,111.5h3.78v3.78h-3.78Zm-15.62,52.21c-7,0-8.3-6.21-8.3-17.67s1.33-17.56,8.3-17.56,8.18,6.17,8.18,17.56S139.34,163.71,132.47,163.71Z"/><path id="_Path_182" data-name="&lt;Path&gt;" class="cls-22" d="M217.1,158.75a82.21,82.21,0,0,0-11-1.74H175.94v1.74Z"/><path id="_Compound_Path_60" data-name="&lt;Compound Path&gt;" class="cls-22" d="M241.55,153.39V137.1h-3.3v-6.16h3.3v-8h-2.79v-6.16h2.79v-4.73H225.63V111h15.92v-1.21H222.69v-2.2h18.86v-2.75H211.24l-3.09,4.4H214v1.1h-6.64l-.85,1.21h5.73v2.2H205l-29.05,41.42v.24H209V156c3.9.5,7.77,1.35,11.59,2.18.82.18,1.63.37,2.45.57h6.22L224,153.49a.66.66,0,0,1,.94-.93l6.19,6.19h4.34v4.34l.69.69a.59.59,0,0,1,.18.54l.63.28c.78.32.43,1.6-.35,1.28-.39-.17-.77-.35-1.15-.54v1.44H175.94V176h39.65v7h-3v5.72h28.91V178.55H250V153.39Zm-55.18-.81h-3.8v-3.81h3.8Zm9.32-2.75h-6.16v-6.16h6.16Zm19.06,3.56h-8.9l8.9-13.59Zm.17-39.69v-6.16h6.16v6.16Zm9.68,6.16h-3.81v-3.81h3.81Zm11.45,13.24h-7v-9.68h7Z"/><rect id="_Path_183" data-name="&lt;Path&gt;" class="cls-22" x="3.52" y="150.31" width="8.34" height="6.16"/><rect id="_Path_184" data-name="&lt;Path&gt;" class="cls-22" x="83.05" y="120.34" width="6.16" height="6.16"/><rect id="_Path_185" data-name="&lt;Path&gt;" class="cls-22" x="90.86" y="123.86" width="3.81" height="3.81"/><rect id="_Path_186" data-name="&lt;Path&gt;" class="cls-22" x="173.99" y="135.31" width="8.34" height="6.16"/><rect id="_Path_187" data-name="&lt;Path&gt;" class="cls-22" x="245.18" y="113.69" width="6.16" height="6.16"/><rect id="_Path_188" data-name="&lt;Path&gt;" class="cls-22" x="252.99" y="117.22" width="3.81" height="3.81"/><rect id="_Path_189" data-name="&lt;Path&gt;" class="cls-22" x="181.62" y="129.58" width="3.81" height="3.81"/><rect id="_Path_190" data-name="&lt;Path&gt;" class="cls-22" x="163.49" y="111.5" width="3.78" height="3.78"/></g></g><g id="_Group_27" data-name="&lt;Group&gt;"><path id="_Compound_Path_61" data-name="&lt;Compound Path&gt;" class="cls-23" d="M82.91,168.76h6V153.39H80.49v-9.65H75.24v-6.16h5.25v-8H75.75v-6.16h4.74v-4.73H62.62v-1.1H80.49v-1.21H59.68v-2.2H80.49v-9.8h-30l-8,11.45H51v1.1H41.66l-.85,1.21h8.44v2.2h-10L14.89,155.12V162H46v1.65H14.89v4h55.5v1.1H14.89v9.79h36.7v12.9h28.9v-12.9h8.45v-5.5h-6Zm-31-54.58h6.16v6.16H51.91Zm-28.55,45h-3.8v-3.81h3.8Zm9.32-2.74H26.52v-6.17h6.16Zm21-3.09H44.8l8.9-13.59Zm7.89-26.89H57.78v-3.81h3.81ZM72.29,137H68.48v-3.81h3.81Z"/><path id="_Compound_Path_62" data-name="&lt;Compound Path&gt;" class="cls-23" d="M148.74,155.36h18.84a83.44,83.44,0,0,0,.51-9.32c0-8.77-1.2-16.33-3.52-22.62H137.45v-4.29h25.28c-5.87-11.71-16.44-17.92-31.14-17.92-8.66,0-15.88,2.17-21.55,6.33h35v2.2h-37.7c-8,7.48-12.29,19.76-12.29,36.3,0,8.8,1.21,16.4,3.53,22.72h25.29v4.29H100.47a33.14,33.14,0,0,0,1.94,3.41H141v2.2H104c6.19,8.07,15.5,12.32,27.62,12.32,20.37,0,32.81-12,35.79-34H148.74Zm-1.53-43.86H151v3.78h-3.78Zm-15.62,52.21c-7,0-8.3-6.21-8.3-17.67s1.33-17.56,8.3-17.56,8.18,6.17,8.18,17.56S138.46,163.71,131.59,163.71Z"/><path id="_Compound_Path_63" data-name="&lt;Compound Path&gt;" class="cls-23" d="M240.67,137.1h-3.3v-6.16h3.3v-8h-2.79v-6.16h2.79v-4.73H224.75V111h15.92v-1.21H221.81v-2.2h18.86v-3.16h-30l-3.37,4.81h5.87v1.1H206.5l-.85,1.21h5.73v2.2h-7.27l-29.05,41.42v.24h33.09V157H175.06v4h57.46v1.1H175.06v16.43h36.7v12.9h28.91v-12.9h8.44V153.39h-8.44Zm-55.18,15.48h-3.8v-3.81h3.8Zm9.32-2.75h-6.16v-6.16h6.16Zm19.06,3.56H205l8.9-13.59Zm.17-45.85h6.16v6.16H214Zm9.68,12.32h-3.81v-3.81h3.81Zm10.7,10.49h-3.81v-3.81h3.81Z"/><rect id="_Path_191" data-name="&lt;Path&gt;" class="cls-23" x="2.64" y="150.31" width="8.34" height="6.16"/><rect id="_Path_192" data-name="&lt;Path&gt;" class="cls-23" x="82.17" y="120.34" width="6.16" height="6.16"/><rect id="_Path_193" data-name="&lt;Path&gt;" class="cls-23" x="89.98" y="123.86" width="3.81" height="3.81"/><rect id="_Path_194" data-name="&lt;Path&gt;" class="cls-23" x="173.11" y="135.31" width="8.34" height="6.16"/><rect id="_Path_195" data-name="&lt;Path&gt;" class="cls-23" x="244.3" y="113.69" width="6.16" height="6.16"/><rect id="_Path_196" data-name="&lt;Path&gt;" class="cls-23" x="252.11" y="117.22" width="3.81" height="3.81"/><rect id="_Path_197" data-name="&lt;Path&gt;" class="cls-23" x="180.74" y="129.58" width="3.81" height="3.81"/><rect id="_Path_198" data-name="&lt;Path&gt;" class="cls-23" x="162.61" y="111.5" width="3.78" height="3.78"/></g></g></g></g></g></svg>